<?xml version="1.0" encoding="UTF-8" standalone="no"?>
<!-- Created with Inkscape (http://www.inkscape.org/) -->

<svg
   width="389.73746"
   height="107.77953"
   viewBox="0 0 103.11804 28.516668"
   version="1.1"
   id="svg1"
   sodipodi:docname="reference_variable.svg"
   inkscape:version="1.3.2 (091e20e, 2023-11-25, custom)"
   xmlns:inkscape="http://www.inkscape.org/namespaces/inkscape"
   xmlns:sodipodi="http://sodipodi.sourceforge.net/DTD/sodipodi-0.dtd"
   xmlns="http://www.w3.org/2000/svg"
   xmlns:svg="http://www.w3.org/2000/svg">
  <sodipodi:namedview
     id="namedview1"
     pagecolor="#ffffff"
     bordercolor="#000000"
     borderopacity="0.25"
     inkscape:showpageshadow="2"
     inkscape:pageopacity="0.0"
     inkscape:pagecheckerboard="0"
     inkscape:deskcolor="#d1d1d1"
     inkscape:document-units="mm"
     inkscape:zoom="2"
     inkscape:cx="177"
     inkscape:cy="124.25"
     inkscape:window-width="1920"
     inkscape:window-height="1057"
     inkscape:window-x="3836"
     inkscape:window-y="1904"
     inkscape:window-maximized="1"
     inkscape:current-layer="layer1" />
  <defs
     id="defs1" />
  <g
     inkscape:label="Layer 1"
     inkscape:groupmode="layer"
     id="layer1"
     transform="translate(-12.608013,-23.3125)">
    <rect
       style="fill:#ffffff;fill-opacity:1;stroke:#000000;stroke-width:0.15;stroke-dasharray:none;stroke-opacity:1"
       id="rect24"
       width="141.55208"
       height="68.791664"
       x="-8.5586538"
       y="7.4375" />
    <rect
       style="fill:#000000;fill-opacity:0;stroke:#000000;stroke-width:0.65;stroke-dasharray:none;stroke-opacity:1"
       id="rect1"
       width="20.351915"
       height="13.797912"
       x="14.695512"
       y="31.574467" />
    <path
       style="fill:#000000;fill-opacity:0;stroke:#000000;stroke-width:0.4;stroke-dasharray:none;stroke-opacity:1"
       d="M 29.36875,38.89375 69.456667,38.774126"
       id="path1" />
    <path
       style="fill:#000000;fill-opacity:0;stroke:#000000;stroke-width:0.4;stroke-dasharray:none;stroke-opacity:1"
       d="m 66.674999,35.189583 2.910416,3.439583 -2.910416,3.571875"
       id="path2" />
    <path
       id="path10"
       style="fill:#000000;fill-opacity:0;stroke:#000000;stroke-width:1;stroke-dasharray:none;stroke-opacity:1"
       d="m 75.273958,23.8125 a 3.7041667,7.2098956 0 0 0 -3.686596,6.692098 5.0270834,5.1593747 0 0 0 -2.795695,-0.871265 5.0270834,5.1593747 0 0 0 -5.027084,5.159375 5.0270834,5.1593747 0 0 0 0.284221,1.676384 9.921875,4.1671872 0 0 0 -5.311304,3.681429 9.921875,4.1671872 0 0 0 6.061129,3.836458 8.7312498,4.0348959 0 0 0 -1.695504,2.38125 8.7312498,4.0348959 0 0 0 8.73125,4.034896 8.7312498,4.0348959 0 0 0 7.404716,-1.909444 5.3578124,7.6729164 0 0 0 2.054138,0.586527 5.3578124,7.6729164 0 0 0 4.519621,-3.579109 12.435416,7.0776043 0 0 0 12.215275,5.828068 12.435416,7.0776043 0 0 0 12.040095,-5.327324 3.2411458,5.3578124 0 0 0 0.32918,0.03566 3.2411458,5.3578124 0 0 0 3.24115,-5.357813 3.2411458,5.3578124 0 0 0 -0.29353,-2.22467 8.9958334,5.5562501 0 0 0 1.88103,-3.397725 8.9958334,5.5562501 0 0 0 -1.82005,-3.348633 6.283854,4.6963539 0 0 0 0.894,-2.406055 6.283854,4.6963539 0 0 0 -6.28385,-4.696354 6.283854,4.6963539 0 0 0 -5.15214,2.024166 8.2020836,6.7468748 0 0 0 -6.291093,-2.421041 8.2020836,6.7468748 0 0 0 -7.486882,4.001306 6.8130207,6.614583 0 0 0 -4.617806,-1.752348 6.8130207,6.614583 0 0 0 -5.595524,2.862358 3.7041667,7.2098956 0 0 0 -3.598747,-5.508191 z" />
    <rect
       style="fill:#000000;fill-opacity:0;stroke:#000000;stroke-width:0.25;stroke-dasharray:none;stroke-opacity:1"
       id="rect21"
       width="41.142708"
       height="8.8635416"
       x="68.527084"
       y="34.263542" />
    <text
       xml:space="preserve"
       style="font-size:2.5625px;fill:#000000;fill-opacity:1;stroke:#000000;stroke-width:0.108957;stroke-dasharray:none;stroke-opacity:1"
       x="14.930714"
       y="37.370556"
       id="text21"><tspan
         sodipodi:role="line"
         id="tspan21"
         style="fill:#000000;fill-opacity:1;stroke-width:0.108957;stroke-dasharray:none"
         x="14.930714"
         y="37.370556">Reference Variable</tspan></text>
    <text
       xml:space="preserve"
       style="font-size:3.52777px;fill:#000000;fill-opacity:1;stroke:#000000;stroke-width:0.15;stroke-dasharray:none;stroke-opacity:1"
       x="82.854889"
       y="39.716667"
       id="text22"><tspan
         sodipodi:role="line"
         id="tspan22"
         style="stroke-width:0.15"
         x="82.854889"
         y="39.716667">Object</tspan></text>
    <text
       xml:space="preserve"
       style="font-size:3.52777px;fill:#000000;fill-opacity:1;stroke:#000000;stroke-width:0.15;stroke-dasharray:none;stroke-opacity:1"
       x="62.614262"
       y="27.28125"
       id="text23"><tspan
         sodipodi:role="line"
         id="tspan23"
         style="stroke-width:0.15"
         x="62.614262"
         y="27.28125">Heap</tspan></text>
  </g>
</svg>
